<?xml version="1.0" encoding="UTF-8"?><!DOCTYPE svg PUBLIC "-//W3C//DTD SVG 1.1//EN" "http://www.w3.org/Graphics/SVG/1.1/DTD/svg11.dtd"><svg xmlns="http://www.w3.org/2000/svg"><symbol id="icon-facebook" viewBox="0 0 10 19">
    <title>
        facebook
    </title>
    <path d="M9.766.157v2.946H8.014c-.64 0-1.071.134-1.295.402-.223.268-.335.67-.335 1.205v2.11h3.27l-.435 3.303H6.384v8.471H2.97v-8.47H.123V6.82H2.97V4.387c0-1.384.387-2.457 1.161-3.22C4.904.404 5.934.023 7.222.023c1.093 0 1.941.045 2.544.134z" fill-rule="evenodd"/>
</symbol><symbol id="icon-left-quotes-sign" viewBox="0 0 508.044 508.044">
    <g>
        <path d="M.108 352.536c0 66.794 54.144 120.938 120.937 120.938 66.794 0 120.938-54.144 120.938-120.938s-54.144-120.937-120.938-120.937c-13.727 0-26.867 2.393-39.168 6.61C109.093 82.118 230.814-18.543 117.979 64.303-7.138 156.17-.026 348.84.114 352.371c0 .055-.006.104-.006.165z"/>
        <path d="M266.169 352.536c0 66.794 54.144 120.938 120.938 120.938s120.938-54.144 120.938-120.938S453.9 231.599 387.106 231.599c-13.728 0-26.867 2.393-39.168 6.61C375.154 82.118 496.875-18.543 384.04 64.303 258.923 156.17 266.034 348.84 266.175 352.371c0 .055-.006.104-.006.165z"/>
    </g>
</symbol></svg>